<svg width="300" height="300" viewBox="0 0 300 300" xmlns="http://www.w3.org/2000/svg">
  <defs>
    <!-- Gradient principal -->
    <linearGradient id="brandGradient" x1="0%" y1="0%" x2="100%" y2="100%">
      <stop offset="0%" style="stop-color:#3B82F6;stop-opacity:1" />
      <stop offset="50%" style="stop-color:#8B5CF6;stop-opacity:1" />
      <stop offset="100%" style="stop-color:#EC4899;stop-opacity:1" />
    </linearGradient>
    
    <!-- Filtre pour l'ombre douce -->
    <filter id="softShadow" x="-20%" y="-20%" width="140%" height="140%">
      <feDropShadow dx="0" dy="8" stdDeviation="12" flood-color="#000000" flood-opacity="0.15"/>
    </filter>
  </defs>
  
  <!-- Cercle principal avec gradient -->
  <circle cx="150" cy="150" r="130" fill="url(#brandGradient)" filter="url(#softShadow)"/>
  
  <!-- Lettre N stylisée -->
  <g transform="translate(90, 100)">
    <path d="M 0 0 L 0 100 L 15 100 L 15 25 L 45 100 L 60 100 L 60 0 L 45 0 L 45 75 L 15 0 Z" fill="white" opacity="0.95"/>
  </g>
  
  <!-- Lettre C stylisée -->
  <g transform="translate(170, 100)">
    <path d="M 50 0 C 22 0, 0 22, 0 50 C 0 78, 22 100, 50 100 L 50 85 C 30 85, 15 70, 15 50 C 15 30, 30 15, 50 15 Z" fill="white" opacity="0.95"/>
  </g>
  
  <!-- Point décoratif central -->
  <circle cx="150" cy="150" r="4" fill="white" opacity="0.7"/>
  
  <!-- Anneaux décoratifs -->
  <circle cx="150" cy="150" r="110" fill="none" stroke="white" stroke-width="1" opacity="0.3"/>
  <circle cx="150" cy="150" r="120" fill="none" stroke="white" stroke-width="0.5" opacity="0.2"/>
</svg>